<?xml version="1.0" encoding="UTF-8" standalone="no"?>
<svg
   viewBox="0 0 500 500"
   version="1.1"
   id="svg10"
   sodipodi:docname="view-fullscreen.svg"
   inkscape:version="1.2.2 (b0a8486541, 2022-12-01)"
   xmlns:inkscape="http://www.inkscape.org/namespaces/inkscape"
   xmlns:sodipodi="http://sodipodi.sourceforge.net/DTD/sodipodi-0.dtd"
   xmlns="http://www.w3.org/2000/svg"
   xmlns:svg="http://www.w3.org/2000/svg"
   xmlns:bx="https://boxy-svg.com">
  <defs
     id="defs14" />
  <sodipodi:namedview
     id="namedview12"
     pagecolor="#ffffff"
     bordercolor="#666666"
     borderopacity="1.0"
     inkscape:pageshadow="2"
     inkscape:pageopacity="0.0"
     inkscape:pagecheckerboard="0"
     showgrid="false"
     inkscape:zoom="1.564"
     inkscape:cx="242.64706"
     inkscape:cy="150.25575"
     inkscape:window-width="2560"
     inkscape:window-height="1342"
     inkscape:window-x="0"
     inkscape:window-y="48"
     inkscape:window-maximized="1"
     inkscape:current-layer="svg10"
     inkscape:showpageshadow="2"
     inkscape:deskcolor="#d1d1d1" />
  <rect
     style="paint-order: stroke; fill: rgb(129, 131, 133); stroke: rgb(6, 6, 6); stroke-width: 10px;"
     x="20.429"
     y="25.115"
     width="456.578"
     height="455.298"
     rx="20"
     ry="20"
     id="rect2"
     transform="matrix(1, 0, 0, 1, -5.684341886080802e-14, 5.684341886080802e-14)" />
  <rect
     style="font-variation-settings:normal;opacity:1;vector-effect:none;fill:#ffffff;fill-opacity:1;fill-rule:evenodd;stroke:#000000;stroke-width:0.792218px;stroke-linecap:butt;stroke-linejoin:miter;stroke-miterlimit:4;stroke-dasharray:none;stroke-dashoffset:0;stroke-opacity:1;-inkscape-stroke:none;stop-color:#000000;stop-opacity:1"
     id="rect576"
     width="349.75308"
     height="349.65665"
     x="75.962807"
     y="77.707253"
     rx="33.551121"
     ry="25.596537" />
  <path
     d="m 267.78295,458.3304 q -14.30361,7.44763 -28.60722,0 L 124.7469,398.74937 q -14.3036,-7.44763 14.3036,-7.44763 h 228.85767 q 28.60721,0 14.30361,7.44763 z"
     style="fill:#cc380a;stroke:#000000;stroke-width:3.85552px;fill-opacity:1"
     bx:shape="triangle 84.379 162.739 362.336 142.403 0.5 0.1 1@8a44cb55"
     id="path8-5" />
  <path
     d="m 454.1573,239.74332 q 7.44763,14.30361 0,28.60722 l -59.58103,114.42883 q -7.44763,14.3036 -7.44763,-14.3036 V 139.6181 q 0,-28.60721 7.44763,-14.30361 z"
     style="fill:#cc380a;stroke:#000000;stroke-width:3.85552px;fill-opacity:1"
     bx:shape="triangle 84.379 162.739 362.336 142.403 0.5 0.1 1@8a44cb55"
     id="path8-7" />
  <path
     d="m 236.42132,47.855554 q 14.30361,-7.44763 28.60722,0 l 114.42883,59.581026 q 14.3036,7.44763 -14.3036,7.44763 H 136.2961 q -28.60721,0 -14.30361,-7.44763 z"
     style="fill:#cc380a;stroke:#000000;stroke-width:3.85552px;fill-opacity:1"
     bx:shape="triangle 84.379 162.739 362.336 142.403 0.5 0.1 1@8a44cb55"
     id="path8-6" />
  <path
     d="m 47.948713,268.35395 q -7.44763,-14.30361 0,-28.60722 L 107.52975,125.3179 q 7.44763,-14.3036 7.44763,14.3036 v 228.85767 q 0,28.60721 -7.44763,14.30361 z"
     style="fill:#cc380a;stroke:#000000;stroke-width:3.85552px;fill-opacity:1"
     bx:shape="triangle 84.379 162.739 362.336 142.403 0.5 0.1 1@8a44cb55"
     id="path8" />
</svg>
